<svg width="12" height="13" viewBox="0 0 12 13" fill="none" xmlns="http://www.w3.org/2000/svg">
<path d="M8.47438 0.956652L7.34351 2.08753L10.381 5.125L11.5119 3.99412C12.096 3.40999 12.096 2.4637 11.5119 1.87958L10.5913 0.956652C10.0071 0.372522 9.06085 0.372522 8.47672 0.956652H8.47438ZM6.81546 2.61558L1.36904 8.06433C1.12604 8.30733 0.948464 8.60874 0.85033 8.93819L0.0232032 11.749C-0.0352097 11.9476 0.0185302 12.1602 0.163394 12.3051C0.308258 12.45 0.520881 12.5037 0.717149 12.4476L3.52798 11.6205C3.85743 11.5224 4.15884 11.3448 4.40183 11.1018L9.85293 5.65305L6.81546 2.61558Z" fill="#46599C"/>
</svg>
