<svg width="16" height="17" viewBox="0 0 16 17" fill="none" xmlns="http://www.w3.org/2000/svg">
<path d="M15.5301 3.53001C16.1551 2.90501 16.1551 1.89001 15.5301 1.26501C14.9051 0.640015 13.8901 0.640015 13.2651 1.26501L8.00009 6.53501L2.73009 1.27001C2.10509 0.645015 1.09009 0.645015 0.465088 1.27001C-0.159912 1.89501 -0.159912 2.91001 0.465088 3.53501L5.73509 8.80001L0.470088 14.07C-0.154912 14.695 -0.154912 15.71 0.470088 16.335C1.09509 16.96 2.11009 16.96 2.73509 16.335L8.00009 11.065L13.2701 16.33C13.8951 16.955 14.9101 16.955 15.5351 16.33C16.1601 15.705 16.1601 14.69 15.5351 14.065L10.2651 8.80001L15.5301 3.53001Z" fill="white"/>
</svg>
