<svg width="8" height="8" viewBox="0 0 8 8" fill="none" xmlns="http://www.w3.org/2000/svg">
<path d="M5.89644 0.845202L5.24003 1.50161L7.00311 3.26469L7.65952 2.60828C7.99857 2.26923 7.99857 1.71996 7.65952 1.38091L7.12517 0.845202C6.78611 0.506148 6.23685 0.506148 5.89779 0.845202H5.89644ZM4.93352 1.80811L1.77219 4.97081C1.63114 5.11185 1.52807 5.28681 1.47111 5.47803L0.991007 7.10956C0.957102 7.22484 0.988295 7.34825 1.07238 7.43234C1.15647 7.51642 1.27988 7.54762 1.3938 7.51507L3.02533 7.03497C3.21656 6.97801 3.39151 6.87493 3.53255 6.73389L6.6966 3.57119L4.93352 1.80811Z" fill="white"/>
</svg>
