<svg width="18" height="16" viewBox="0 0 18 16" fill="none" xmlns="http://www.w3.org/2000/svg">
<path d="M16.2115 4.38872C16.2225 4.54622 16.2225 4.70374 16.2225 4.86124C16.2225 9.66496 12.6343 15.2 6.07617 15.2C4.05572 15.2 2.17882 14.6037 0.600006 13.5688C0.887073 13.6025 1.16306 13.6137 1.46117 13.6137C3.12828 13.6137 4.66296 13.04 5.88847 12.0613C4.3207 12.0275 3.00686 10.9812 2.55418 9.54123C2.77501 9.57496 2.99581 9.59747 3.22769 9.59747C3.54786 9.59747 3.86806 9.55245 4.16614 9.47374C2.53213 9.13622 1.30658 7.67373 1.30658 5.90748V5.8625C1.78131 6.1325 2.33339 6.30125 2.9185 6.32372C1.95796 5.67121 1.32867 4.55747 1.32867 3.29746C1.32867 2.62247 1.50529 2.00372 1.81444 1.46372C3.56991 3.66872 6.20864 5.1087 9.1675 5.26622C9.11231 4.99622 9.07917 4.715 9.07917 4.43374C9.07917 2.43122 10.669 0.799988 12.6453 0.799988C13.6721 0.799988 14.5995 1.23874 15.2509 1.94749C16.0568 1.78999 16.8297 1.48623 17.5142 1.06999C17.2492 1.91376 16.6862 2.62251 15.9465 3.07248C16.6641 2.99377 17.3597 2.79122 18 2.51C17.5143 3.22997 16.907 3.87119 16.2115 4.38872Z" fill="white"/>
</svg>
