<svg width="20" height="21" viewBox="0 0 20 21" fill="none" xmlns="http://www.w3.org/2000/svg">
<path fill-rule="evenodd" clip-rule="evenodd" d="M0 4C0 1.79086 1.79086 0 4 0H16C18.2091 0 20 1.79086 20 4V12.25H0V4ZM4 17C2.04721 17 0.421253 15.6006 0.0701979 13.75H19.9298C19.5787 15.6006 17.9528 17 16 17H10.75V19.25H13C13.4142 19.25 13.75 19.5858 13.75 20C13.75 20.4142 13.4142 20.75 13 20.75H7C6.58579 20.75 6.25 20.4142 6.25 20C6.25 19.5858 6.58579 19.25 7 19.25H9.25V17H4ZM5 4.25C4.58579 4.25 4.25 4.58579 4.25 5C4.25 5.41421 4.58579 5.75 5 5.75H10C10.4142 5.75 10.75 5.41421 10.75 5C10.75 4.58579 10.4142 4.25 10 4.25H5ZM4.25 9C4.25 8.58579 4.58579 8.25 5 8.25H15C15.4142 8.25 15.75 8.58579 15.75 9C15.75 9.41421 15.4142 9.75 15 9.75H5C4.58579 9.75 4.25 9.41421 4.25 9Z" fill="white"/>
</svg>
