<svg width="20" height="20" viewBox="0 0 20 20" fill="none" xmlns="http://www.w3.org/2000/svg">
<path d="M19.3711 6.50781C19.4961 6.84766 19.3906 7.22656 19.1211 7.46875L17.4297 9.00781C17.4727 9.33203 17.4961 9.66406 17.4961 10C17.4961 10.3359 17.4727 10.668 17.4297 10.9922L19.1211 12.5312C19.3906 12.7734 19.4961 13.1523 19.3711 13.4922C19.1992 13.957 18.9922 14.4023 18.7539 14.832L18.5703 15.1484C18.3125 15.5781 18.0234 15.9844 17.707 16.3672C17.4766 16.6484 17.0938 16.7422 16.75 16.6328L14.5742 15.9414C14.0508 16.3438 13.4727 16.6797 12.8555 16.9336L12.3672 19.1641C12.2891 19.5195 12.0156 19.8008 11.6563 19.8594C11.1172 19.9492 10.5625 19.9961 9.9961 19.9961C9.4297 19.9961 8.87501 19.9492 8.33595 19.8594C7.97657 19.8008 7.70313 19.5195 7.62501 19.1641L7.13673 16.9336C6.51954 16.6797 5.94142 16.3438 5.41798 15.9414L3.2461 16.6367C2.90235 16.7461 2.51954 16.6484 2.28907 16.3711C1.97267 15.9883 1.6836 15.582 1.42579 15.1523L1.2422 14.8359C1.00392 14.4062 0.796885 13.9609 0.62501 13.4961C0.50001 13.1562 0.605479 12.7773 0.87501 12.5352L2.56642 10.9961C2.52345 10.668 2.50001 10.3359 2.50001 10C2.50001 9.66406 2.52345 9.33203 2.56642 9.00781L0.87501 7.46875C0.605479 7.22656 0.50001 6.84766 0.62501 6.50781C0.796885 6.04297 1.00392 5.59766 1.2422 5.16797L1.42579 4.85156C1.6836 4.42188 1.97267 4.01562 2.28907 3.63281C2.51954 3.35156 2.90235 3.25781 3.2461 3.36719L5.42189 4.05859C5.94532 3.65625 6.52345 3.32031 7.14064 3.06641L7.62892 0.835938C7.70704 0.480469 7.98048 0.199219 8.33985 0.140625C8.87892 0.046875 9.4336 0 10 0C10.5664 0 11.1211 0.046875 11.6602 0.136719C12.0195 0.195312 12.293 0.476562 12.3711 0.832031L12.8594 3.0625C13.4766 3.31641 14.0547 3.65234 14.5781 4.05469L16.7539 3.36328C17.0977 3.25391 17.4805 3.35156 17.7109 3.62891C18.0274 4.01172 18.3164 4.41797 18.5742 4.84766L18.7578 5.16406C18.9961 5.59375 19.2031 6.03906 19.375 6.50391L19.3711 6.50781ZM10 13.125C11.7266 13.125 13.125 11.7266 13.125 10C13.125 8.27344 11.7266 6.875 10 6.875C8.27345 6.875 6.87501 8.27344 6.87501 10C6.87501 11.7266 8.27345 13.125 10 13.125Z" fill="white"/>
</svg>
